<svg width="16" height="17" viewBox="0 0 16 17" fill="none" xmlns="http://www.w3.org/2000/svg">
<path d="M12.6667 7.83332H8.66669V3.83332C8.66669 3.65651 8.59645 3.48694 8.47142 3.36192C8.3464 3.23689 8.17683 3.16666 8.00002 3.16666C7.82321 3.16666 7.65364 3.23689 7.52862 3.36192C7.40359 3.48694 7.33335 3.65651 7.33335 3.83332V7.83332H3.33335C3.15654 7.83332 2.98697 7.90356 2.86195 8.02859C2.73693 8.15361 2.66669 8.32318 2.66669 8.49999C2.66669 8.6768 2.73693 8.84637 2.86195 8.97139C2.98697 9.09642 3.15654 9.16666 3.33335 9.16666H7.33335V13.1667C7.33335 13.3435 7.40359 13.513 7.52862 13.6381C7.65364 13.7631 7.82321 13.8333 8.00002 13.8333C8.17683 13.8333 8.3464 13.7631 8.47142 13.6381C8.59645 13.513 8.66669 13.3435 8.66669 13.1667V9.16666H12.6667C12.8435 9.16666 13.0131 9.09642 13.1381 8.97139C13.2631 8.84637 13.3334 8.6768 13.3334 8.49999C13.3334 8.32318 13.2631 8.15361 13.1381 8.02859C13.0131 7.90356 12.8435 7.83332 12.6667 7.83332Z" fill="#333333"/>
</svg>
