<svg width="16" height="17" viewBox="0 0 16 17" fill="none" xmlns="http://www.w3.org/2000/svg">
<path d="M12.6667 7.83334H8.66667V3.83334C8.66667 3.65653 8.59643 3.48696 8.47141 3.36193C8.34638 3.23691 8.17682 3.16667 8 3.16667C7.82319 3.16667 7.65362 3.23691 7.5286 3.36193C7.40358 3.48696 7.33334 3.65653 7.33334 3.83334V7.83334H3.33334C3.15653 7.83334 2.98696 7.90358 2.86193 8.0286C2.73691 8.15362 2.66667 8.32319 2.66667 8.5C2.66667 8.67682 2.73691 8.84638 2.86193 8.97141C2.98696 9.09643 3.15653 9.16667 3.33334 9.16667H7.33334V13.1667C7.33334 13.3435 7.40358 13.5131 7.5286 13.6381C7.65362 13.7631 7.82319 13.8333 8 13.8333C8.17682 13.8333 8.34638 13.7631 8.47141 13.6381C8.59643 13.5131 8.66667 13.3435 8.66667 13.1667V9.16667H12.6667C12.8435 9.16667 13.0131 9.09643 13.1381 8.97141C13.2631 8.84638 13.3333 8.67682 13.3333 8.5C13.3333 8.32319 13.2631 8.15362 13.1381 8.0286C13.0131 7.90358 12.8435 7.83334 12.6667 7.83334Z" fill="#070707"/>
</svg>
