<svg width="17" height="17" viewBox="0 0 17 17" fill="none" xmlns="http://www.w3.org/2000/svg">
<path d="M13.1667 7.83329H9.16666V3.83329C9.16666 3.65648 9.09642 3.48691 8.97139 3.36189C8.84637 3.23686 8.6768 3.16663 8.49999 3.16663C8.32318 3.16663 8.15361 3.23686 8.02859 3.36189C7.90356 3.48691 7.83332 3.65648 7.83332 3.83329V7.83329H3.83332C3.65651 7.83329 3.48694 7.90353 3.36192 8.02855C3.23689 8.15358 3.16666 8.32315 3.16666 8.49996C3.16666 8.67677 3.23689 8.84634 3.36192 8.97136C3.48694 9.09639 3.65651 9.16663 3.83332 9.16663H7.83332V13.1666C7.83332 13.3434 7.90356 13.513 8.02859 13.638C8.15361 13.7631 8.32318 13.8333 8.49999 13.8333C8.6768 13.8333 8.84637 13.7631 8.97139 13.638C9.09642 13.513 9.16666 13.3434 9.16666 13.1666V9.16663H13.1667C13.3435 9.16663 13.513 9.09639 13.6381 8.97136C13.7631 8.84634 13.8333 8.67677 13.8333 8.49996C13.8333 8.32315 13.7631 8.15358 13.6381 8.02855C13.513 7.90353 13.3435 7.83329 13.1667 7.83329Z" fill="#333333"/>
</svg>
